<svg xmlns="http://www.w3.org/2000/svg" viewBox="0 0 64 64" role="img" aria-label="Nanxin favicon">
  <rect width="64" height="64" fill="white"/>
  <polygon points="18,7 20.6,13.4 27,16 20.6,18.6 18,25 15.4,18.6 9,16 15.4,13.4" fill="#F5A623"/>
  <path d="M6 33c8-14 28-20 45-15 2 .6 4 1.4 6 2.6-6-9-18-13-31-12-9 .8-17 4.8-23 10.8-2.8 3.1-4.1 7-3.4 10.6.7 1.9 2.5 3 6.4 3z" fill="#007ACC"/>
  <path d="M28 18c14-4 27 0 29 8 3 9-6 20-21 25-8 3-17 3-24 .5 6 6 17 8 28 6 16-4 28-15 26-26-2-10-16-17-31-14-2.5.4-5 1.1-7 2.5z" fill="#007ACC"/>
  <path d="M31 21c5 0 9 1 11 3l-3 3c-2-1-4-2-7-1-2 .5-4 1.5-4 3 0 1.6 1 2.8 4 3.8l4 1.1c5 1.5 7 4.3 7 7.8 0 5-5 8.7-12 9.1-4.4.3-8.6-.8-12-3.2l4-3.2c2 1.6 5 2.5 8 2.3 3-.2 5-1.6 5-3.8 0-1.6-1.3-2.7-4.4-3.7l-3.8-1.2c-4.4-1.4-6.8-4-6.8-7.7 0-5 4.8-8.6 11-8.6z" fill="#007ACC"/>
</svg>
