<svg xmlns="http://www.w3.org/2000/svg" viewBox="0 0 118 111" role="img" aria-label="Nanxin logo">
  <rect width="118" height="111" fill="white"/>
  <polygon points="24,12 28,22 39,26 28,30 24,40 20,30 9,26 20,22" fill="#F5A623"/>
  <path d="M9 55c15-27 55-37 90-28 4 1 8 3 11 5-11-18-36-27-63-24-17 2-32 10-42 22-5 6-7 13-6 20 1 3 4 5 10 5z" fill="#007CC3"/>
  <path d="M53 31c27-7 50 0 55 16 5 16-10 35-37 44-15 5-33 5-46 1 11 10 31 14 50 10 31-7 53-28 49-48-4-20-31-31-60-26-8 1-15 4-21 8 3-2 6-4 10-5z" fill="#007CC3"/>
  <path d="M58 30c10 0 17 2 21 5l-7 5c-3-2-8-3-13-2-4 1-7 3-8 6 0 3 2 5 7 7l7 2c9 3 13 8 13 14 0 9-9 15-22 16-8 1-16-1-22-5l7-6c4 3 9 4 15 4 6-1 10-3 10-7 0-3-2-5-8-7l-7-2c-8-3-12-7-12-14 0-9 8-15 19-16z" fill="#007CC3"/>
  <text x="59" y="101" text-anchor="middle" font-size="18" font-weight="700" font-family="Arial, Helvetica, sans-serif" fill="#007CC3" letter-spacing="1">Nanxin</text>
</svg>
