<svg xmlns="http://www.w3.org/2000/svg" viewBox="0 0 280 74" role="img" aria-label="Nanxin wiki logo">
  <rect width="280" height="74" fill="white"/>
  <g transform="translate(0,2)">
    <polygon points="24,4 27,12 36,15 27,18 24,26 21,18 12,15 21,12" fill="#F29C1F"/>
    <polygon points="11,18 13,23 18,25 13,27 11,32 9,27 4,25 9,23" fill="#E53935"/>
    <path d="M6 39c9-17 30-25 48-22 5 1 10 2 14 5-8-11-23-17-39-16-11 1-21 5-28 13-5 5-7 11-6 17 1 2 4 3 11 3z" fill="#007CC3"/>
    <path d="M33 12c18-5 35-2 44 7 5 5 6 11 5 17-4 14-20 25-40 29-8 2-18 2-25 1 9 5 21 7 34 5 22-4 40-18 42-33 2-16-13-29-37-30-8-1-16 1-23 4z" fill="#174A8B"/>
    <path d="M34 18c6-1 13 0 17 2l-5 4c-2-1-5-1-8-1-3 1-6 2-6 4 0 2 2 4 5 5l5 1c7 2 10 6 10 10 0 7-7 12-17 12-6 1-12-1-17-4l5-4c3 2 7 3 11 3 4 0 7-2 7-5 0-2-2-4-6-5l-5-1c-6-2-9-5-9-10 0-6 6-11 13-11z" fill="#007CC3"/>
    <text x="8" y="67" font-size="12" font-weight="700" font-family="Arial, Helvetica, sans-serif" fill="#007CC3" letter-spacing="0.6">Nanxin</text>
  </g>
  <text x="88" y="41" font-size="28" font-weight="700" font-family="Arial, Helvetica, sans-serif" fill="#174A8B" letter-spacing="1">南芯微电子</text>
  <text x="234" y="20" font-size="10" font-family="Arial, Helvetica, sans-serif" fill="#174A8B">®</text>
</svg>
